<svg width="40" height="25" viewBox="0 0 40 25" fill="none" xmlns="http://www.w3.org/2000/svg">
<path d="M36.6667 3.33333H25V0H36.6667V3.33333ZM39.55 20C38.8167 22.1667 36.1667 25 31.05 25C25.9333 25 21.7833 22.1167 21.7833 15.5333C21.7833 9.01667 25.6667 5.66667 30.9 5.66667C36.0333 5.66667 39.1667 8.63333 39.8667 13.05C40 13.9 40.05 15.0333 40.0167 16.6167H26.6333C26.85 21.9667 32.4333 22.1333 34.2833 20C34.2667 20 39.55 20 39.55 20ZM26.7333 13.3333H35.0167C34.85 10.75 33.1167 9.63333 30.8833 9.63333C28.4333 9.63333 27.0833 10.9167 26.7333 13.3333ZM10.7833 24.9833H0V0.0333333H11.5833C20.7167 0.166667 20.8833 9.1 16.1167 11.55C21.8833 13.65 22.0833 24.9833 10.7833 24.9833ZM5 10H10.9667C15.15 10 15.8167 5 10.45 5H5V10ZM10.65 15H5V20.0333H10.5667C15.6667 20.0333 15.35 15 10.65 15Z" fill="white"/>
</svg>
