<svg width="30" height="31" viewBox="0 0 30 31" fill="none" xmlns="http://www.w3.org/2000/svg">
<path d="M15.0006 2.70245C19.0062 2.70245 19.4808 2.71768 21.0618 2.79034C22.5243 2.85714 23.3189 3.1009 23.8474 3.30716C24.5471 3.57904 25.0475 3.90484 25.5725 4.42986C26.0975 4.95488 26.4221 5.45412 26.694 6.15493C26.8991 6.68346 27.144 7.47802 27.2108 8.94058C27.2835 10.5227 27.2987 10.9973 27.2987 15.0018C27.2987 19.0062 27.2835 19.482 27.2108 21.0629C27.144 22.5255 26.9003 23.32 26.694 23.8486C26.4221 24.5482 26.0963 25.0486 25.5725 25.5736C25.0475 26.0987 24.5482 26.4233 23.8474 26.6952C23.3189 26.9003 22.5243 27.1452 21.0618 27.212C19.4797 27.2846 19.0062 27.2999 15.0006 27.2999C10.995 27.2999 10.5203 27.2846 8.93941 27.212C7.47685 27.1452 6.68229 26.9014 6.15376 26.6952C5.45412 26.4233 4.95371 26.0975 4.42869 25.5736C3.90367 25.0486 3.57905 24.5494 3.30716 23.8486C3.10207 23.32 2.85714 22.5255 2.79034 21.0629C2.71768 19.4808 2.70245 19.0062 2.70245 15.0018C2.70245 10.9973 2.71768 10.5215 2.79034 8.94058C2.85714 7.47802 3.1009 6.68346 3.30716 6.15493C3.57905 5.45529 3.90484 4.95488 4.42869 4.42986C4.95254 3.90484 5.45295 3.58022 6.15376 3.30716C6.68229 3.10207 7.47685 2.85714 8.93941 2.79034C10.5203 2.71768 10.995 2.70245 15.0006 2.70245ZM15.0006 0C10.927 0 10.416 0.0175788 8.81636 0.0902379C7.21903 0.162897 6.12915 0.417204 5.17403 0.78753C4.18727 1.17075 3.35052 1.68405 2.51729 2.51728C1.68405 3.35052 1.17075 4.18844 0.787531 5.1752C0.417204 6.12914 0.162897 7.21903 0.0902379 8.81636C0.0175788 10.416 0 10.927 0 15.0006C0 19.0742 0.0175788 19.5851 0.0902379 21.1848C0.162897 22.781 0.417204 23.872 0.787531 24.826C1.17075 25.8127 1.68405 26.6495 2.51729 27.4827C3.35169 28.3171 4.18727 28.8292 5.17403 29.2125C6.12797 29.5828 7.21903 29.8371 8.81519 29.9097C10.416 29.9836 10.927 30.0012 15.0006 30.0012C19.0742 30.0012 19.5851 29.9836 21.1848 29.9109C22.781 29.8383 23.872 29.584 24.826 29.2136C25.8127 28.8304 26.6495 28.3171 27.4827 27.4839C28.3171 26.6495 28.8293 25.8139 29.2125 24.8271C29.5828 23.8732 29.8371 22.7821 29.9098 21.186C29.9824 19.5863 30 19.0753 30 15.0018C30 10.9282 29.9824 10.4172 29.9098 8.81753C29.8371 7.22137 29.5828 6.13031 29.2125 5.17637C28.8293 4.18961 28.3159 3.35286 27.4827 2.51963C26.6495 1.68639 25.8127 1.17075 24.826 0.78753C23.872 0.417204 22.781 0.162897 21.1848 0.0902379C19.5851 0.0175788 19.0742 0 15.0006 0ZM15.0006 7.29755C10.7465 7.29755 7.29755 10.7465 7.29755 15.0006C7.29755 19.2547 10.7465 22.7036 15.0006 22.7036C19.2547 22.7036 22.7036 19.2547 22.7036 15.0006C22.7036 10.7465 19.2547 7.29755 15.0006 7.29755ZM15.0006 20.0012C12.2395 20.0012 10 17.7628 10 15.0006C10 12.2384 12.2384 10 15.0006 10C17.7628 10 20.0012 12.2384 20.0012 15.0006C20.0012 17.7628 17.7616 20.0012 15.0006 20.0012ZM24.8084 6.99285C24.8084 7.98664 24.0021 8.79292 23.0083 8.79292C22.0145 8.79292 21.2083 7.98664 21.2083 6.99285C21.2083 5.99906 22.0145 5.19278 23.0083 5.19278C24.0021 5.19278 24.8084 5.99906 24.8084 6.99285Z" fill="white"/>
</svg>
