<svg width="120" height="120" viewBox="0 0 120 120" fill="none" xmlns="http://www.w3.org/2000/svg">
<path d="M120 0H0V120H120V0Z" fill="#E50000"/>
<path d="M70.717 53.6789L64.2303 61.2633C61.297 64.6856 59.557 67.4089 54.5892 67.4089C49.4392 67.4089 47.3281 64.2056 47.3281 61.3422C47.3281 58.9556 48.4948 56.7522 53.8026 54.7733C57.737 53.2989 58.1437 52.0678 58.1437 51.08C58.1437 50.0822 57.5103 49.0066 56.037 49.0066C54.697 49.0066 54.0648 50.0522 54.0648 51.0722C54.0648 52.1611 54.9559 53.2122 56.237 54.1267L71.0514 66.9767H64.2959L51.7126 56.0311C50.2126 54.6767 49.5037 53.2767 49.5037 51.4655C49.5037 48.6178 51.8059 45.8933 56.0437 45.8933C60.557 45.8933 62.397 48.6578 62.397 51.0544C62.397 53.3189 60.9948 55.0889 56.3825 56.6955C52.3414 58.1022 52.0537 59.7233 52.0537 60.7422C52.0537 62.2733 53.1514 63.5589 55.0792 63.5589C57.1114 63.5589 58.0503 62.7489 60.997 59.0867L65.3214 53.6789H70.717Z" fill="white"/>
<path d="M76.6801 65.5022V73.3599H71.8912V55.5489C71.8912 54.3178 71.8912 53.0611 71.8623 51.83H76.6923C76.6923 52.1355 76.6812 53.1444 76.6812 53.7766C77.5345 52.5378 79.0712 51.4189 81.9601 51.4189C85.8756 51.4189 89.0701 54.6755 89.0701 59.1033C89.0701 64.3755 85.2923 67.3855 81.3467 67.3855C78.8501 67.3866 77.4012 66.4266 76.6801 65.5022ZM84.1445 59.3655C84.1445 57.1377 82.8867 55.1411 80.4145 55.1411C77.6323 55.1411 76.5712 56.9222 76.5712 59.4266C76.5712 62.0266 77.8723 63.6133 80.3568 63.6133C82.8168 63.6144 84.1445 61.8933 84.1445 59.3655Z" fill="white"/>
<path d="M91.7634 51.8056C93.6545 54.1767 94.9634 55.7944 95.4601 56.46H95.5156C96.1923 55.5122 97.4267 53.9289 99.0612 51.8056H104.151L98.0867 59.0344L104.445 66.95H99.0212C97.1534 64.5022 95.8467 62.88 95.2445 62.0867H95.1856C94.689 62.73 93.5201 64.2244 91.4556 66.95H86.3556L92.489 59.2767L86.2656 51.8044H91.7634V51.8056Z" fill="white"/>
<path d="M35.4795 51.9767H38.1962V47.5133H43.0117V51.9767H46.5184V55.4544H43.0117V61.8344C43.0117 63.1233 43.3073 63.6433 44.775 63.6433C45.1884 63.6433 45.6984 63.6433 46.5173 63.6433V67.1222C44.5428 67.1222 44.2506 67.1222 43.0262 67.1222C39.2973 67.1222 38.1962 65.6244 38.1962 62.67V55.4556H35.4795V51.9767Z" fill="white"/>
<path d="M28.369 51.5666C25.4823 51.5666 23.9434 52.6866 23.0901 53.9233C23.0901 53.2899 23.1001 52.271 23.1001 51.9777H15.5557V55.4566H18.3023V70.0288H15.5557V73.5077H25.6968V70.0288H23.0912V65.6499C23.8123 66.5732 25.2601 67.5343 27.7568 67.5343C31.7012 67.5343 35.479 64.5244 35.479 59.2521C35.479 54.8221 32.2846 51.5666 28.369 51.5666ZM26.7657 63.7588C24.2801 63.7588 22.979 62.1732 22.979 59.5732C22.979 57.0677 24.0434 55.2888 26.8246 55.2888C29.2957 55.2888 30.5557 57.2844 30.5557 59.5121C30.5557 62.0377 29.2279 63.7588 26.7657 63.7588Z" fill="white"/>
</svg>
